<svg xmlns="http://www.w3.org/2000/svg" width="1920" height="1080"><defs>
      <linearGradient id="sky" x1="0" y1="0" x2="1" y2="1"><stop stop-color="#101d39"/><stop offset=".5" stop-color="#b55e55"/><stop offset="1" stop-color="#f7b66a"/></linearGradient>
      <linearGradient id="night" x1="0" y1="0" x2="1" y2="1"><stop stop-color="#040812"/><stop offset=".6" stop-color="#19234a"/><stop offset="1" stop-color="#ef6e38"/></linearGradient>
      <linearGradient id="jacket" x1="0" y1="0" x2="1" y2="1"><stop stop-color="#293752"/><stop offset=".55" stop-color="#101827"/><stop offset="1" stop-color="#73351f"/></linearGradient>
      <radialGradient id="skin"><stop stop-color="#f5bf8d"/><stop offset="1" stop-color="#9c4c3b"/></radialGradient>
      <linearGradient id="metal"><stop stop-color="#d9e6f4"/><stop offset=".4" stop-color="#51657e"/><stop offset="1" stop-color="#121a2a"/></linearGradient>
      <filter id="soft"><feGaussianBlur stdDeviation="18"/></filter>
    </defs><rect width="1920" height="1080" fill="url(#night)"/><path d="M0 820 L620 565 1330 565 1920 820V1080H0Z" fill="#080d18"/><path d="M740 1080 L915 570 1020 570 1180 1080Z" fill="#17223b"/><path d="M0 760 L0 180 520 180 640 760Z" fill="#121a2e"/><path d="M1450 760 L1500 130 1920 130 1920 760Z" fill="#121a2e"/><g fill="#ff8b3d"><rect x="70" y="250" width="72" height="22" rx="11"/><rect x="188" y="314" width="72" height="22" rx="11"/><rect x="306" y="378" width="72" height="22" rx="11"/><rect x="424" y="442" width="72" height="22" rx="11"/><rect x="542" y="250" width="72" height="22" rx="11"/><rect x="660" y="314" width="72" height="22" rx="11"/><rect x="778" y="378" width="72" height="22" rx="11"/><rect x="896" y="442" width="72" height="22" rx="11"/><rect x="1014" y="250" width="72" height="22" rx="11"/><rect x="1132" y="314" width="72" height="22" rx="11"/><rect x="1250" y="378" width="72" height="22" rx="11"/><rect x="1368" y="442" width="72" height="22" rx="11"/><rect x="1486" y="250" width="72" height="22" rx="11"/><rect x="1604" y="314" width="72" height="22" rx="11"/><rect x="1722" y="378" width="72" height="22" rx="11"/></g><g stroke="#7be6ff" stroke-width="12" opacity=".75"><path d="M40 690H650"/><path d="M1290 690H1880"/><path d="M620 380H740"/><path d="M1190 420H1410"/></g><g transform="translate(970 640) scale(0.9)">
      <ellipse cx="0" cy="250" rx="150" ry="34" fill="#06080d" opacity=".7"/>
      <path d="M-120 210 Q-105 40 -78 -5 Q0 -55 78 -5 Q105 40 120 210 L72 250 L-72 250Z" fill="url(#jacket)" stroke="#d76f32" stroke-width="5"/>
      <path d="M-72 42 Q-90 -90 0 -120 Q90 -90 72 42 Q50 96 0 112 Q-50 96 -72 42Z" fill="url(#skin)" stroke="#6c352a" stroke-width="5"/>
      <path d="M-75 -12 Q-82 -112 0 -143 Q82 -112 75 -12 L36 -54 Q0 -32 -47 -49Z" fill="#10151f" stroke="#ffb06e" stroke-width="6"/>
      <path d="M-42 14 Q-15 29 0 14 Q15 29 42 14" fill="none" stroke="#6b2b2b" stroke-width="4"/>
      <ellipse cx="-27" cy="-10" rx="8" ry="11" fill="#17141b"/><ellipse cx="27" cy="-10" rx="8" ry="11" fill="#17141b"/>
      <circle cx="-25" cy="-11" r="3" fill="#7be6ff"/><circle cx="29" cy="-11" r="3" fill="#7be6ff"/>
      <path d="M-103 95 L-166 188 M103 95 L166 188" stroke="#d76f32" stroke-width="20" stroke-linecap="round"/>
      <path d="M-35 245 L-65 330 M35 245 L65 330" stroke="#141b2a" stroke-width="35" stroke-linecap="round"/>
    </g><g fill="#d8f4ff" opacity=".75"><circle cx="80" cy="100" r="3"/><circle cx="210" cy="170" r="3"/><circle cx="340" cy="240" r="3"/><circle cx="470" cy="310" r="3"/><circle cx="600" cy="380" r="3"/><circle cx="730" cy="100" r="3"/><circle cx="860" cy="170" r="3"/><circle cx="990" cy="240" r="3"/><circle cx="1120" cy="310" r="3"/><circle cx="1250" cy="380" r="3"/><circle cx="1380" cy="100" r="3"/><circle cx="1510" cy="170" r="3"/><circle cx="1640" cy="240" r="3"/><circle cx="1770" cy="310" r="3"/></g></svg>